<svg xmlns="http://www.w3.org/2000/svg" viewBox="0 0 390.08 53.74"><title>ASSA ABLOY Black</title><g id="Layer_2" data-name="Layer 2"><g id="Layer_1-2" data-name="Layer 1"><path d="M140,1.27l-13.65,36c0-11.63-11.49-14-15.22-14.92-12.84-3.31-15.28-3.78-15.28-7.75,0-4.3,4.16-5.81,7.75-5.8,5.39,0,9.75,1.57,10.12,7.73h10.9c0-11.84-9.84-16.49-20.51-16.48C94.92.07,85.18,5,84.93,15.17,84.17,4.38,74.74.09,64.47.1c-9.24,0-19.13,5-19.13,15.49,0,9.62,7.68,12.55,15.28,14.56s15.21,2.93,15.2,8.45c0,5.24-6,6.38-9.95,6.39-6,0-11.33-2.65-11.34-9.46H43.76L30.94,1.31H19.41L0,52.55l11.4,0,4-11.4H34.58l3.87,11.4H50.13l-1.8-4.79c4.13,4.09,10.48,6,17.11,6,10.25,0,17-3.83,19.77-9.6,3.58,6.57,11.49,9.59,19.81,9.58,8,0,13.89-2.36,17.4-6.16l-1.87,4.93H132l4-11.41h19.17L159,52.48h11.7L151.52,1.27ZM18.34,32.73,25,13.94h.15l6.46,18.79ZM105.42,45c-6,0-11.32-2.65-11.34-9.44H86.62C85.5,25.45,75.05,23.28,71.51,22.39c-12.82-3.29-15.26-3.8-15.27-7.74,0-4.31,4.16-5.81,7.74-5.81,5.39,0,9.75,1.56,10.12,7.73H85c.54,8.81,7.9,11.64,15.23,13.55,7.54,2,15.22,2.94,15.22,8.46C115.41,43.81,109.39,45,105.42,45Zm33.47-12.28,6.68-18.79h.14l6.47,18.79Zm122.62-8.08c4.45-2.15,7-5.67,7-10.7,0-9.53-6.61-12.7-16.38-12.68H228l0,47.43L210.27,1.24H198.71L179.29,52.48h11.42l4-11.42h19.16l3.88,11.39h35.11c9.25,0,18.06-4.46,18.07-14.86C270.92,31.2,267.75,26.4,261.51,24.61Zm-63.86,8.06,6.67-18.8h.15l6.46,18.81ZM239.28,10h10.54c4,0,7.75,1,7.76,5.89,0,4.31-3,6.11-6.88,6.1l-11.42,0Zm12.07,33.71H239.29V29.64h12.26c4.81,0,8.12,2.08,8.1,7.32S255.78,43.69,251.35,43.69ZM323.68,0c-15.85,0-25.18,11.82-25.17,27a29.19,29.19,0,0,0,4.42,15.88L284,43l-.15-41.89-11.26,0,.16,51.3,32.57-.14,0-6.31c4.31,4.74,10.57,7.66,18.44,7.65,15.86,0,25.17-11.84,25.16-26.61C348.87,11.81,339.53,0,323.68,0Zm0,44.18c-10.12,0-13.91-8.61-13.93-17.14,0-9,3.79-17.58,13.92-17.58S337.6,18.06,337.62,27C337.62,35.56,333.81,44.16,323.7,44.18Zm53.83-43-11.9,20.24-12-20.22h-12.7L359.8,32.46l0,19.95h11.26l0-19.68,19-31.55Z"/></g></g></svg>