<svg id="Component_60_17" data-name="Component 60 – 17" xmlns="http://www.w3.org/2000/svg" width="40.088" height="36.06" viewBox="0 0 40.088 36.06">
  <g id="Group_13179" data-name="Group 13179" transform="translate(-538.677 -416.459)">
    <path id="Path_7949" data-name="Path 7949" d="M563.865,416.788a.668.668,0,1,1-.8,1.07l.8-1.07Zm-1.176,1.07-.8-1.07.055-.04.057-.037.057-.034.06-.033.06-.03.06-.026.062-.025.062-.022.064-.019.064-.017.063-.014.064-.011.066-.009.063-.007.066,0h.131l.065,0,.064.007.065.009.065.011.062.014.065.017.063.019.062.022.062.025.06.026.06.03.06.033.057.034.057.037.055.04-.8,1.07-.011-.008-.01-.007-.012-.007-.01-.005-.012-.006L563,417.82l-.011-.005-.012,0-.011,0-.012,0-.013,0-.012,0h-.012l-.014,0h-.048l-.013,0h-.012l-.012,0-.014,0-.011,0-.012,0-.011,0-.012.005-.012.005-.011.006-.011.005-.012.007-.01.007Zm0,0a.668.668,0,0,1-.8-1.07Z" fill="#1a1a1a" fill-rule="evenodd"/>
  </g>
  <g id="Group_13180" data-name="Group 13180" transform="translate(-538.677 -416.459)">
    <path id="Path_7950" data-name="Path 7950" d="M564.271,437.577a.668.668,0,1,1,0,1.336v-1.336Zm-.353,1.54-1.157-.668.03-.05.032-.049.032-.047.034-.046.037-.046.037-.043.038-.042.039-.041.042-.04.042-.038.043-.036.044-.035.045-.033.047-.033.048-.031.047-.028.051-.028.05-.026.051-.024.051-.022.052-.021.054-.019.054-.018.055-.016.056-.014.055-.012.056-.01.056-.009.058-.006.058-.005.058,0h.058v1.336h-.04l-.013,0-.014,0-.014,0-.013,0-.013,0-.012,0-.013,0-.011,0-.013.006-.013.005-.012,0-.012.007-.01.006-.013.007-.01.007-.011.007-.01.008-.011.008-.011.009-.009.009-.009.009-.009.009-.01.011-.009.01-.008.01-.008.01-.008.012-.007.011Zm0,0a.668.668,0,0,1-1.157-.668Z" fill="#1a1a1a" fill-rule="evenodd"/>
  </g>
  <g id="Group_13181" data-name="Group 13181" transform="translate(-538.677 -416.459)">
    <path id="Path_7951" data-name="Path 7951" d="M562.761,438.449a.668.668,0,1,1,1.157.668l-1.157-.668Zm-.141.244.141-.244,1.157.668-.141.244-1.157-.668Zm1.157.668a.668.668,0,1,1-1.157-.668Z" fill="#1a1a1a" fill-rule="evenodd"/>
  </g>
  <g id="Group_13182" data-name="Group 13182" transform="translate(-538.677 -416.459)">
    <path id="Path_7952" data-name="Path 7952" d="M561.166,440.869a.668.668,0,0,1,0-1.337v1.337Zm1.454-2.176,1.157.668-.052.087-.054.084-.057.082-.059.08-.062.077-.065.076-.066.073-.069.071-.071.068-.072.066-.075.062-.076.061-.079.058-.081.056-.082.053-.084.05-.084.047-.087.045-.089.042-.089.039-.092.036-.092.033-.093.03-.094.027-.1.025-.1.021-.1.018-.1.014-.1.012-.1.008-.1.005-.1,0v-1.337h.057l.055,0,.055-.005.056-.006.055-.009.053-.009.054-.012.053-.014.053-.015.052-.017.051-.018.05-.02.05-.022.05-.023.048-.025.048-.027.046-.027.046-.03.044-.03.044-.033.043-.034.042-.035.04-.037.04-.038.038-.039.037-.04.035-.042.035-.043.033-.045.032-.046.03-.046Zm0,0a.668.668,0,0,1,1.157.668Z" fill="#1a1a1a" fill-rule="evenodd"/>
  </g>
  <g id="Group_13183" data-name="Group 13183" transform="translate(-538.677 -416.459)">
    <path id="Path_7953" data-name="Path 7953" d="M561.166,439.532a.668.668,0,1,1,0,1.337v-1.337Zm-4.888,0h4.888v1.337h-4.888v-1.337Zm0,1.337a.668.668,0,0,1,0-1.337Z" fill="#1a1a1a" fill-rule="evenodd"/>
  </g>
  <g id="Group_13184" data-name="Group 13184" transform="translate(-538.677 -416.459)">
    <path id="Path_7954" data-name="Path 7954" d="M553.667,439.361a.668.668,0,0,1,1.157-.668l-1.157.668Zm2.611.171v1.337l-.1,0-.1-.005-.1-.008-.1-.012-.1-.014-.1-.018-.1-.021-.1-.025-.094-.027-.093-.03-.093-.033-.091-.036-.089-.039-.089-.042-.086-.045-.085-.047-.084-.05-.082-.053-.081-.056-.078-.058-.077-.06-.075-.064-.072-.065-.071-.068-.069-.071-.066-.073-.065-.076-.061-.077-.06-.08-.057-.082-.054-.084-.052-.087,1.157-.668.029.049.031.046.031.046.034.045.034.043.035.042.037.04.039.039.039.038.041.037.041.035.043.034.044.033.044.03.046.03.047.027.048.027.048.025.049.023.05.022.05.02.051.018.053.017.052.015.053.014.054.012.054.009.054.009.056.006.055.005.055,0Zm0,0a.668.668,0,0,1,0,1.337Z" fill="#1a1a1a" fill-rule="evenodd"/>
  </g>
  <g id="Group_13185" data-name="Group 13185" transform="translate(-538.677 -416.459)">
    <path id="Path_7955" data-name="Path 7955" d="M554.825,438.693a.668.668,0,0,1-1.158.668l1.158-.668Zm-.141-.244.141.244-1.158.668-.141-.244,1.158-.668Zm-1.158.668a.668.668,0,0,1,1.158-.668Z" fill="#1a1a1a" fill-rule="evenodd"/>
  </g>
  <g id="Group_13186" data-name="Group 13186" transform="translate(-538.677 -416.459)">
    <path id="Path_7956" data-name="Path 7956" d="M554.683,438.449a.668.668,0,0,1-1.157.668l1.157-.668Zm-1.51.464v-1.336h.058l.058,0,.058.005.058.006.056.009.056.01.056.012.054.014.056.016.054.018.054.019.052.021.051.022.051.024.051.026.05.028.046.028.049.031.047.033.045.033.044.035.043.036.043.038.041.04.04.041.037.042.037.043.037.046.034.046.033.047.031.049.03.05-1.157.668-.007-.012-.007-.011-.008-.012-.008-.01-.008-.01-.009-.01-.009-.011-.01-.009-.009-.009-.009-.009-.011-.009-.01-.008-.011-.008-.01-.007-.011-.007-.013-.007-.011-.007-.011-.005-.012-.006-.013-.005-.012-.006-.013,0-.011,0-.013,0-.013,0-.013,0-.014,0-.013,0-.013,0h-.041Zm0,0a.668.668,0,0,1,0-1.336Z" fill="#1a1a1a" fill-rule="evenodd"/>
  </g>
  <g id="Group_13187" data-name="Group 13187" transform="translate(-538.677 -416.459)">
    <path id="Path_7957" data-name="Path 7957" d="M554.74,438.742a.668.668,0,0,1-1.158.668l1.158-.668Zm-.141-.244.141.244-1.158.668-.141-.244,1.158-.668Zm-1.158.668a.668.668,0,0,1,1.158-.668Z" fill="#1a1a1a" fill-rule="evenodd"/>
  </g>
  <g id="Group_13188" data-name="Group 13188" transform="translate(-538.677 -416.459)">
    <path id="Path_7958" data-name="Path 7958" d="M553.583,439.41a.668.668,0,0,1,1.157-.668l-1.157.668Zm2.7.22v1.336h-.1l-.1-.006-.1-.008-.1-.012-.1-.015-.1-.019-.1-.021-.1-.025-.1-.028-.1-.032-.095-.034-.094-.037-.093-.04-.09-.043-.09-.047-.088-.048-.087-.052-.085-.055-.083-.057-.081-.06-.079-.063-.077-.065-.075-.068-.073-.07-.071-.073-.069-.076-.066-.077-.064-.08-.061-.083-.059-.085-.056-.086-.053-.09,1.157-.668.03.051.032.05.034.048.035.047.036.046.038.044.039.043.041.042.042.04.042.039.044.037.045.036.047.034.047.033.049.031.048.029.051.028.051.026.052.025.053.023.053.021.055.02.055.018.055.016.057.014.056.012.058.011.057.008.059.007.059.005.059,0Zm0,0a.668.668,0,0,1,0,1.336Z" fill="#1a1a1a" fill-rule="evenodd"/>
  </g>
  <g id="Group_13189" data-name="Group 13189" transform="translate(-538.677 -416.459)">
    <path id="Path_7959" data-name="Path 7959" d="M561.166,439.63a.668.668,0,1,1,0,1.336V439.63Zm-4.888,0h4.888v1.336h-4.888V439.63Zm0,1.336a.668.668,0,1,1,0-1.336Z" fill="#1a1a1a" fill-rule="evenodd"/>
  </g>
  <g id="Group_13190" data-name="Group 13190" transform="translate(-538.677 -416.459)">
    <path id="Path_7960" data-name="Path 7960" d="M561.166,440.966a.668.668,0,1,1,0-1.336v1.336Zm1.538-2.224,1.158.668-.054.09-.056.086-.058.085-.062.083-.064.08-.066.077-.069.076-.071.073-.073.07-.075.068-.077.065-.079.063-.081.06-.083.057-.085.055-.087.052-.088.048-.089.047-.091.043-.092.04-.095.037-.094.034-.1.032-.1.028-.1.025-.1.021-.1.019-.1.015-.1.012-.1.008-.1.006h-.1V439.63h.06l.058,0,.06-.005.058-.007.058-.008.057-.011.056-.012.057-.014.055-.016.055-.018.055-.02.053-.021.053-.023.052-.025.051-.026.051-.028.049-.029.048-.031.047-.033.047-.034.045-.036.044-.037.043-.039.042-.04.04-.042.039-.043.038-.044.036-.046.035-.047.034-.048.032-.05Zm0,0a.668.668,0,0,1,1.158.668Z" fill="#1a1a1a" fill-rule="evenodd"/>
  </g>
  <g id="Group_13191" data-name="Group 13191" transform="translate(-538.677 -416.459)">
    <path id="Path_7961" data-name="Path 7961" d="M562.845,438.5a.668.668,0,0,1,1.158.668l-1.158-.668Zm-.141.244.141-.244,1.158.668-.141.244-1.158-.668Zm1.158.668a.668.668,0,0,1-1.158-.668Z" fill="#1a1a1a" fill-rule="evenodd"/>
  </g>
  <g id="Group_13192" data-name="Group 13192" transform="translate(-538.677 -416.459)">
    <path id="Path_7962" data-name="Path 7962" d="M564.271,437.675a.668.668,0,1,1,0,1.336v-1.336ZM564,439.166l-1.158-.668.029-.048.03-.046.03-.044.033-.044.034-.042.034-.041.037-.04.038-.039.038-.037.041-.037.04-.033.041-.033.043-.032.045-.031.045-.029.044-.026.047-.027.049-.025.046-.021.049-.022.051-.02.05-.018.051-.016.052-.016.052-.012.051-.012.054-.01.055-.008.053-.006.054-.005.055,0h.055v1.336h-.051l-.009,0-.012,0-.01,0-.009,0-.01,0-.009,0-.008,0-.01.005-.01.005-.008,0-.009.005-.009.006-.008,0-.008.005-.007.006-.009.007-.009.007-.006.006-.007.007-.008.008-.006.006-.007.009-.007.008-.005.008-.007.009-.005.008Zm0,0a.668.668,0,0,1-1.158-.668Z" fill="#1a1a1a" fill-rule="evenodd"/>
  </g>
  <g id="Group_13193" data-name="Group 13193" transform="translate(-538.677 -416.459)">
    <path id="Path_7963" data-name="Path 7963" d="M554.6,438.5a.668.668,0,0,1-1.157.669l1.157-.669Zm-1.426.514v-1.336h.055l.055,0,.054.005.053.006.055.008.054.01.051.012.052.012.052.016.051.016.051.018.05.02.049.022.046.021.049.025.047.027.044.026.045.029.045.031.043.032.04.032.042.035.04.036.038.036.038.04.037.04.035.041.033.042.033.044.03.044.03.046.029.047-1.157.669-.006-.009,0-.008-.006-.009-.006-.008-.007-.008-.007-.009-.006-.006-.006-.007-.009-.008-.007-.007-.007-.005-.01-.008-.007-.006-.007,0-.009-.006-.009-.006-.009-.005-.008,0-.01-.005-.01-.005-.008,0-.009,0-.01,0-.009,0-.01,0-.012,0-.009,0h-.051Zm0,0a.668.668,0,0,1,0-1.336Z" fill="#1a1a1a" fill-rule="evenodd"/>
  </g>
  <path id="Path_7964" data-name="Path 7964" d="M558.584,443.028a3.6,3.6,0,0,0-1.972.737,2.628,2.628,0,0,0-.244.207c-.039.038-.077.069-.117.109a3.6,3.6,0,0,0-.1,4.987c.038.038.069.077.109.116a3.608,3.608,0,0,0,5.411-4.75,4,4,0,0,0-.315-.361,3.78,3.78,0,0,0-.628-.5,3.526,3.526,0,0,0-.6-.3A3.606,3.606,0,0,0,558.584,443.028Z" transform="translate(-538.677 -416.459)" fill="#1a1a1a" fill-rule="evenodd"/>
  <path id="Path_7965" data-name="Path 7965" d="M557.65,446.629c.018,0,.436,0,.458,0,.041-.008.013-.045.051-.122.1-.2.473-.157.551-.055a.226.226,0,0,1,.012.247c-.124.161-.685.067-.959.277a.478.478,0,0,0-.166.447c.046.578.861.54,1.137.283.016-.014.018-.026.039-.031a.752.752,0,0,0,.035.161h.479c-.007-.031-.021-.058-.029-.094a.745.745,0,0,1-.018-.108c-.016-.154-.009-.567-.009-.735,0-.374.045-.617-.247-.759a1.441,1.441,0,0,0-.869-.05.7.7,0,0,0-.322.18.555.555,0,0,0-.143.36Zm1.1.359c.007.223.009.384-.128.5a.467.467,0,0,1-.491.011.237.237,0,0,1-.048-.245c.057-.159.285-.172.432-.194A.544.544,0,0,0,558.753,446.988Z" transform="translate(-538.677 -416.459)" fill="#fff" fill-rule="evenodd"/>
  <path id="Path_7966" data-name="Path 7966" d="M561.745,447.3h-.408c-.027.008-.011.037-.08.1a.428.428,0,0,1-.735-.32h1.255a.9.9,0,0,0-.692-1.022.932.932,0,0,0-.683.152.949.949,0,0,0,.238,1.632.891.891,0,0,0,.958-.254.943.943,0,0,0,.147-.292Zm-1.224-.519a.372.372,0,0,1,.387-.37.364.364,0,0,1,.389.37Z" transform="translate(-538.677 -416.459)" fill="#fff" fill-rule="evenodd"/>
  <path id="Path_7967" data-name="Path 7967" d="M556.7,447.832l.526,0c.009-.083,0-.684,0-.821,0-.106-.009-.088.037-.165.1-.161.841-1.382.85-1.42h-.585l-.556.945-.564-.943-.594,0a.993.993,0,0,0,.074.129c.027.046.049.081.077.127l.618,1.025c.118.2.114.145.114.3C556.7,447.215,556.693,447.663,556.7,447.832Z" transform="translate(-538.677 -416.459)" fill="#fff" fill-rule="evenodd"/>
  <rect id="Rectangle_2096" data-name="Rectangle 2096" width="2.404" height="0.477" transform="translate(20.754 31.373) rotate(-89.907)" fill="#fff"/>
  <g id="Group_13194" data-name="Group 13194" transform="translate(-538.677 -416.459)">
    <path id="Path_7968" data-name="Path 7968" d="M543.568,417.323h30.306a4.905,4.905,0,0,1,4.891,4.891v25.414a4.905,4.905,0,0,1-4.891,4.891H543.568a4.905,4.905,0,0,1-4.891-4.891V422.214a4.905,4.905,0,0,1,4.891-4.891Zm30.306,1.348H543.568a3.554,3.554,0,0,0-3.555,3.543v25.414a3.554,3.554,0,0,0,3.555,3.544h30.306a3.554,3.554,0,0,0,3.554-3.544V422.214a3.554,3.554,0,0,0-3.554-3.543Z" fill="#1a1a1a" fill-rule="evenodd"/>
  </g>
  <g id="Group_13195" data-name="Group 13195" transform="translate(-538.677 -416.459)">
    <path id="Path_7969" data-name="Path 7969" d="M539.452,438.972a.668.668,0,0,1,0-1.337v1.337Zm13.588,0H539.452v-1.337H553.04v1.337Zm0-1.337a.668.668,0,0,1,0,1.337v-1.337Zm11.441,1.337a.668.668,0,0,1,0-1.337v1.337Zm13.415,0H564.481v-1.337H577.9v1.337Zm0-1.337a.668.668,0,0,1,0,1.337Z" fill="#1a1a1a" fill-rule="evenodd"/>
  </g>
</svg>
